<svg width="24" height="25" viewBox="0 0 24 25" fill="none" xmlns="http://www.w3.org/2000/svg">
<g clip-path="url(#clip0_71_325)">
<path d="M24 5.95697V19.866C24 20.77 23.268 21.502 22.364 21.502H18.545V12.23L12 17.14L5.455 12.23V21.503H1.636C1.42107 21.503 1.20825 21.4606 1.0097 21.3783C0.811145 21.2961 0.63075 21.1755 0.47882 21.0234C0.32689 20.8714 0.206404 20.6909 0.124246 20.4923C0.0420884 20.2937 -0.000131068 20.0809 3.05652e-07 19.866V5.95697C3.05652e-07 3.93397 2.309 2.77897 3.927 3.99297L5.455 5.13997L12 10.048L18.545 5.13797L20.073 3.99297C21.69 2.77997 24 3.93397 24 5.95697Z" fill="#F2F2F2"/>
</g>
<defs>
<clipPath id="clip0_71_325">
<rect width="24" height="24" fill="white" transform="translate(0 0.5)"/>
</clipPath>
</defs>
</svg>
