<svg width="24" height="25" viewBox="0 0 24 25" fill="none" xmlns="http://www.w3.org/2000/svg">
<path d="M16.6 6.32C15.9166 5.53953 15.5399 4.5374 15.54 3.5H12.45V15.9C12.4267 16.5712 12.1435 17.2071 11.6603 17.6735C11.1771 18.1399 10.5316 18.4004 9.86 18.4C8.44 18.4 7.26 17.24 7.26 15.8C7.26 14.08 8.92 12.79 10.63 13.32V10.16C7.18 9.7 4.16 12.38 4.16 15.8C4.16 19.13 6.92 21.5 9.85 21.5C12.99 21.5 15.54 18.95 15.54 15.8V9.51C16.793 10.4099 18.2974 10.8926 19.84 10.89V7.8C19.84 7.8 17.96 7.89 16.6 6.32Z" fill="#F2F2F2"/>
</svg>
